<svg width="100" height="100" viewBox="0 0 100 100" fill="none" xmlns="http://www.w3.org/2000/svg">
<g clip-path="url(#clip0_537_15301)">
<path d="M35.4481 25.3632V14.4576H7.07544V72.4764H47.0566C48.5095 72.4714 49.9015 71.8917 50.9285 70.8639C51.9555 69.836 52.534 68.4435 52.5377 66.9906V30.8585H40.9339C39.4785 30.8548 38.0839 30.2743 37.0557 29.2442C36.0274 28.2142 35.4493 26.8186 35.4481 25.3632Z" fill="#1D1C23" stroke="white" stroke-width="1.53774" stroke-miterlimit="10"/>
<path d="M22.4009 52.0519H27.8679" stroke="white" stroke-width="2" stroke-linecap="round" stroke-linejoin="round"/>
<path d="M30.6084 52.0519H37.3773" stroke="white" stroke-width="2" stroke-linecap="round" stroke-linejoin="round"/>
<path d="M40.8821 52.0519H46.3491" stroke="white" stroke-width="1.53774" stroke-linecap="round" stroke-linejoin="round"/>
<path d="M12.1274 36.2641H18.8963" stroke="white" stroke-width="2" stroke-linecap="round" stroke-linejoin="round"/>
<path d="M22.4009 36.2641H27.8679" stroke="white" stroke-width="2" stroke-linecap="round" stroke-linejoin="round"/>
<path d="M30.6084 36.2641H37.3773" stroke="white" stroke-width="2" stroke-linecap="round" stroke-linejoin="round"/>
<path d="M40.8821 36.2641H46.3491" stroke="white" stroke-width="2" stroke-linecap="round" stroke-linejoin="round"/>
<path d="M12.1274 43.5802H18.8963" stroke="white" stroke-width="2" stroke-linecap="round" stroke-linejoin="round"/>
<path d="M22.4009 43.5802H27.8679" stroke="white" stroke-width="2" stroke-linecap="round" stroke-linejoin="round"/>
<path d="M30.6084 43.5802H37.3773" stroke="white" stroke-width="2" stroke-linecap="round" stroke-linejoin="round"/>
<path d="M40.8821 43.5802H46.3491" stroke="white" stroke-width="2" stroke-linecap="round" stroke-linejoin="round"/>
<path d="M41.2642 30.4669C39.798 30.4657 38.3921 29.883 37.3549 28.8467C36.3176 27.8103 35.7337 26.4049 35.7312 24.9387V15.4717C35.7321 15.3206 35.7773 15.173 35.8611 15.0473C35.9449 14.9215 36.0638 14.8231 36.2029 14.7642C36.2981 14.7226 36.401 14.7017 36.5048 14.7028C36.7033 14.7017 36.8945 14.7778 37.0378 14.9151L51.868 29.1415C51.9792 29.248 52.0561 29.3852 52.0889 29.5356C52.1216 29.686 52.1088 29.8427 52.0519 29.9858C51.9918 30.1261 51.8918 30.2456 51.7644 30.3294C51.6369 30.4133 51.4876 30.4578 51.335 30.4575L41.2642 30.4669Z" fill="#1D1C23"/>
<path d="M36.5047 15.4717L51.3349 29.6981H41.2641C40.003 29.6944 38.7946 29.1917 37.9028 28.3C37.0111 27.4082 36.5084 26.1998 36.5047 24.9387V15.4717ZM36.5047 13.9293C36.2968 13.9297 36.0913 13.9731 35.9009 14.0566C35.6215 14.173 35.3829 14.3695 35.215 14.6213C35.0471 14.8731 34.9575 15.1691 34.9575 15.4717V24.9387C34.96 26.6088 35.6249 28.2098 36.8064 29.3904C37.9878 30.5709 39.5892 31.2346 41.2594 31.2358H51.3302C51.6327 31.2352 51.9283 31.1454 52.18 30.9776C52.4317 30.8098 52.6283 30.5714 52.7453 30.2924C52.8614 30.0071 52.8889 29.6933 52.8241 29.3921C52.7593 29.0909 52.6053 28.8162 52.382 28.6038L37.5519 14.3774C37.2643 14.1035 36.8829 13.95 36.4858 13.9481L36.5047 13.9293Z" fill="white"/>
<path d="M84.7971 45.0802H46.1461C43.2909 45.0802 40.9763 47.3948 40.9763 50.25V76.0849C40.9763 78.9401 43.2909 81.2547 46.1461 81.2547H84.7971C87.6523 81.2547 89.9669 78.9401 89.9669 76.0849V50.25C89.9669 47.3948 87.6523 45.0802 84.7971 45.0802Z" fill="#D5F979" stroke="white" stroke-width="1.53774" stroke-miterlimit="10"/>
<path d="M65.0141 71.7019C65.9645 71.7019 66.7349 70.9315 66.7349 69.9811C66.7349 69.0308 65.9645 68.2604 65.0141 68.2604C64.0638 68.2604 63.2934 69.0308 63.2934 69.9811C63.2934 70.9315 64.0638 71.7019 65.0141 71.7019Z" fill="#111111" stroke="#111111" stroke-width="0.3"/>
<path d="M67.5686 67.4271L67.568 67.4264C67.2336 67.0897 66.8357 66.8226 66.3974 66.6407C65.9591 66.4589 65.489 66.3658 65.0144 66.367L65.0135 66.367C64.5389 66.3653 64.0687 66.4581 63.6304 66.64C63.192 66.8219 62.7942 67.0892 62.4602 67.4263L62.4596 67.427L62.4596 67.427C62.2705 67.6155 62.0145 67.7213 61.7475 67.7213C61.4806 67.7213 61.2245 67.6155 61.0355 67.427L61.0352 67.4267C60.8467 67.2376 60.7409 66.9816 60.7409 66.7147C60.7409 66.4478 60.8467 66.1917 61.0351 66.0027C61.5566 65.4786 62.1768 65.0632 62.8598 64.7803C63.5427 64.4975 64.2749 64.3529 65.0141 64.3547M67.5686 67.4271L68.2782 67.5708C68.3904 67.571 68.5015 67.5491 68.6051 67.5062C68.7087 67.4633 68.8028 67.4002 68.882 67.3208L68.9882 67.4267C68.9882 67.4266 68.9883 67.4266 68.9883 67.4266C69.1767 67.2376 69.2825 66.9816 69.2825 66.7147C69.2825 66.4478 69.1768 66.1918 68.9884 66.0028C68.4678 65.4789 67.8484 65.0634 67.1661 64.7805C66.484 64.4977 65.7525 64.353 65.0141 64.3547M67.5686 67.4271C67.7571 67.6146 68.012 67.7202 68.2779 67.7208L67.5686 67.4271ZM65.0141 64.3547C65.0142 64.3547 65.0143 64.3547 65.0144 64.3547L65.0141 64.5047L65.0137 64.3547C65.0138 64.3547 65.0139 64.3547 65.0141 64.3547Z" fill="#111111" stroke="#111111" stroke-width="0.3"/>
<path d="M70.4177 64.5779L70.4178 64.578C70.6063 64.7656 70.8612 64.8711 71.1271 64.8717L71.1277 64.8717C71.3936 64.8711 71.6485 64.7656 71.837 64.578L71.8374 64.5776C72.0259 64.3886 72.1317 64.1325 72.1317 63.8656C72.1317 63.5986 72.0259 63.3426 71.8374 63.1535L71.8372 63.1533C70.0261 61.3448 67.5713 60.329 65.0119 60.329C62.4524 60.329 59.9976 61.3448 58.1865 63.1533L58.1863 63.1535C57.9978 63.3426 57.892 63.5986 57.892 63.8656C57.892 64.1325 57.9978 64.3886 58.1863 64.5776L58.1866 64.5779C58.3757 64.7664 58.6317 64.8723 58.8986 64.8723C59.1656 64.8723 59.4217 64.7664 59.6107 64.5779L59.6107 64.5779C61.0451 63.1473 62.9883 62.3439 65.0142 62.3439C67.0401 62.3439 68.9833 63.1473 70.4177 64.5779Z" fill="#111111" stroke="#111111" stroke-width="0.3"/>
<path d="M73.2668 61.729L73.2667 61.7289C71.0762 59.5436 68.1083 58.3163 65.0142 58.3163C61.92 58.3163 58.9521 59.5436 56.7616 61.7289L56.7616 61.7289C56.5725 61.9174 56.3165 62.0232 56.0496 62.0232C55.7826 62.0232 55.5265 61.9174 55.3375 61.7289L55.3372 61.7286C55.1487 61.5395 55.0429 61.2834 55.0429 61.0165C55.0429 60.7496 55.1487 60.4936 55.337 60.3046L73.2668 61.729ZM73.2668 61.729C73.4553 61.9165 73.7102 62.0221 73.9761 62.0227L73.9768 62.0227M73.2668 61.729L73.9768 62.0227M73.9768 62.0227C74.2427 62.0221 74.4976 61.9165 74.686 61.729L74.6864 61.7286M73.9768 62.0227L74.6864 61.7286M74.6864 61.7286C74.8749 61.5395 74.9807 61.2834 74.9807 61.0165C74.9807 60.7496 74.875 60.4936 74.6866 60.3046C73.4196 59.0299 71.9123 58.0194 70.2518 57.3317C68.5915 56.644 66.8112 56.2927 65.0142 56.2981M74.6864 61.7286L55.3371 60.3045C56.6049 59.0297 58.1131 58.0192 59.7743 57.3315C61.4354 56.6438 63.2164 56.2926 65.0142 56.2981M65.0142 56.2981C65.0143 56.2981 65.0145 56.2981 65.0146 56.2981L65.0142 56.4481L65.0137 56.2981C65.0139 56.2981 65.014 56.2981 65.0142 56.2981Z" fill="#111111" stroke="#111111" stroke-width="0.3"/>
<path d="M65.2407 37V34.2076C65.2394 33.3635 64.9036 32.5544 64.3067 31.9576C63.7099 31.3607 62.9007 31.0249 62.0567 31.0236H58.2831C58.1795 31.023 58.0768 31.0429 57.9809 31.0823C57.8851 31.1216 57.798 31.1797 57.7247 31.253C57.6514 31.3262 57.5934 31.4133 57.554 31.5091C57.5147 31.605 57.4947 31.7077 57.4954 31.8113C57.4954 31.9145 57.5158 32.0167 57.5554 32.112C57.5951 32.2074 57.6532 32.2939 57.7264 32.3667C57.7996 32.4394 57.8865 32.4971 57.982 32.5361C58.0776 32.5752 58.1799 32.595 58.2831 32.5943H62.0567C62.4842 32.5956 62.8938 32.766 63.196 33.0682C63.4983 33.3705 63.6686 33.7801 63.6699 34.2076V37C63.6693 37.1032 63.6891 37.2056 63.7281 37.3011C63.7672 37.3967 63.8248 37.4835 63.8976 37.5567C63.9703 37.6299 64.0569 37.688 64.1522 37.7277C64.2475 37.7673 64.3497 37.7877 64.4529 37.7877C64.5564 37.7877 64.6588 37.7674 64.7544 37.7278C64.8499 37.6882 64.9368 37.6302 65.0099 37.557C65.0831 37.4839 65.1411 37.397 65.1807 37.3015C65.2203 37.2059 65.2407 37.1034 65.2407 37Z" fill="white"/>
<path d="M62.4717 35.2925L64.4622 40.1274L66.2075 35.2925H62.4717Z" fill="#1D1C23"/>
<path d="M66.9481 35.5566L65.2028 40.3963C65.1484 40.5461 65.0499 40.6759 64.9202 40.7685C64.7905 40.8612 64.6357 40.9123 64.4764 40.9151C64.3198 40.9202 64.1654 40.8778 64.0332 40.7937C63.9011 40.7095 63.7974 40.5874 63.7358 40.4434L61.7453 35.6038C61.6968 35.4845 61.6779 35.3553 61.6902 35.2272C61.7025 35.099 61.7457 34.9758 61.816 34.868C61.8884 34.7607 61.9861 34.6727 62.1004 34.6119C62.2147 34.551 62.3422 34.5191 62.4717 34.5189H66.2075C66.3344 34.5179 66.4596 34.5478 66.5722 34.6062C66.6848 34.6645 66.7815 34.7495 66.8537 34.8538C66.9507 34.9916 67.0004 35.1571 66.9953 35.3255C66.9922 35.4046 66.9763 35.4827 66.9481 35.5566ZM64.4151 37.9434L65.0896 36.0566H63.6462L64.4151 37.9434Z" fill="white"/>
<path d="M30.8161 83.4151H28.0189C27.1749 83.4138 26.3658 83.078 25.7689 82.4812C25.1721 81.8843 24.8362 81.0752 24.835 80.2311V76.4575C24.835 76.2486 24.918 76.0483 25.0657 75.9006C25.2134 75.7528 25.4137 75.6698 25.6227 75.6698C25.7261 75.6698 25.8286 75.6902 25.9242 75.7298C26.0197 75.7694 26.1065 75.8274 26.1797 75.9006C26.2528 75.9737 26.3109 76.0605 26.3505 76.1561C26.3901 76.2517 26.4104 76.3541 26.4104 76.4575V80.2311C26.4104 80.6581 26.5797 81.0678 26.8813 81.3702C27.1828 81.6726 27.5919 81.8431 28.0189 81.8443H30.8161C30.9193 81.8437 31.0217 81.8635 31.1172 81.9026C31.2128 81.9416 31.2996 81.9992 31.3728 82.072C31.446 82.1448 31.5041 82.2313 31.5438 82.3266C31.5834 82.4219 31.6038 82.5242 31.6038 82.6274C31.6038 82.7308 31.5835 82.8332 31.5439 82.9288C31.5043 83.0244 31.4462 83.1112 31.3731 83.1844C31.2999 83.2575 31.2131 83.3155 31.1176 83.3551C31.022 83.3947 30.9195 83.4151 30.8161 83.4151Z" fill="white"/>
<path d="M29.1038 80.6462L33.9434 82.6368L29.1038 84.3821V80.6462Z" fill="#1D1C23"/>
<path d="M29.1037 85.1699C28.9354 85.174 28.7702 85.1244 28.632 85.0283C28.5286 84.9552 28.4443 84.8584 28.386 84.746C28.3278 84.6335 28.2972 84.5087 28.2971 84.3821V80.6604C28.2968 80.5315 28.3286 80.4045 28.3895 80.2909C28.4505 80.1773 28.5386 80.0806 28.6462 80.0095C28.7542 79.9376 28.878 79.8931 29.0071 79.88C29.1361 79.8668 29.2665 79.8853 29.3868 79.934L34.2217 81.9246C34.3649 81.9873 34.4863 82.0911 34.5703 82.223C34.6543 82.3549 34.6971 82.5088 34.6934 82.6651C34.6882 82.8245 34.6357 82.9788 34.5424 83.1082C34.4491 83.2376 34.3194 83.3363 34.1697 83.3915L29.3348 85.1368C29.2599 85.1595 29.182 85.1707 29.1037 85.1699ZM29.8915 81.8208V83.2642L31.7783 82.5896L29.8915 81.8208Z" fill="white"/>
<path d="M29.8442 59.4198H36.6131" stroke="white" stroke-width="1.53774" stroke-linecap="round" stroke-linejoin="round"/>
<path d="M12.1321 30.5424H18.9057" stroke="white" stroke-width="2" stroke-linecap="round" stroke-linejoin="round"/>
<path d="M21.7595 30.5424H28.5284" stroke="white" stroke-width="2" stroke-linecap="round" stroke-linejoin="round"/>
</g>
<defs>
<clipPath id="clip0_537_15301">
<rect width="100" height="100" fill="white"/>
</clipPath>
</defs>
</svg>
